<svg width="64" height="64" viewBox="0 0 64 64" fill="none" xmlns="http://www.w3.org/2000/svg">
<path d="M9.49982 34.375L46.0686 34.375L24.1811 53.375C23.8311 53.6813 24.0436 54.25 24.5061 54.25L30.0373 54.25C30.2811 54.25 30.5123 54.1625 30.6936 54.0063L54.3123 33.5125C54.5286 33.325 54.7021 33.0932 54.821 32.8328C54.9399 32.5723 55.0015 32.2894 55.0015 32.0031C55.0015 31.7168 54.9399 31.4339 54.821 31.1735C54.7021 30.9131 54.5286 30.6813 54.3123 30.4938L30.5561 9.875C30.4623 9.79375 30.3498 9.75 30.2311 9.75L24.5123 9.75C24.0498 9.75 23.8373 10.325 24.1873 10.625L46.0686 29.625L9.49982 29.625C9.22482 29.625 8.99982 29.85 8.99982 30.125L8.99982 33.875C8.99982 34.15 9.22482 34.375 9.49982 34.375Z" fill="white"/>
</svg>
