<svg fill="none" height="64" viewBox="0 0 64 64" width="64" xmlns="http://www.w3.org/2000/svg"><path d="m54.5002 29.625h-36.5688l21.8875-19c.35-.3062.1375-.875-.325-.875h-5.5312c-.2438 0-.475.0875-.6563.24375l-23.61872 20.49375c-.21632.1875-.38981.4193-.50871.6797-.1189.2605-.18043.5434-.18043.8297s.06153.5692.18043.8296.29239.4922.50871.6797l23.75622 20.6188c.0938.0812.2063.125.325.125h5.7188c.4625 0 .675-.575.325-.875l-21.8813-19h36.5688c.275 0 .5-.225.5-.5v-3.75c0-.275-.225-.5-.5-.5z" fill="#727272"/></svg>