<svg width="32" height="32" viewBox="0 0 32 32" fill="none" xmlns="http://www.w3.org/2000/svg">
<path d="M16 2C8.26875 2 2 8.26875 2 16C2 23.7312 8.26875 30 16 30C23.7312 30 30 23.7312 30 16C30 8.26875 23.7312 2 16 2ZM16 27.625C9.58125 27.625 4.375 22.4187 4.375 16C4.375 9.58125 9.58125 4.375 16 4.375C22.4187 4.375 27.625 9.58125 27.625 16C27.625 22.4187 22.4187 27.625 16 27.625Z" fill="black"/>
<path d="M22.4813 15.5981L13.2281 8.87934C13.1539 8.82494 13.0661 8.79221 12.9743 8.78481C12.8826 8.77741 12.7906 8.79562 12.7087 8.83742C12.6267 8.87922 12.5579 8.94296 12.5101 9.02154C12.4622 9.10012 12.4371 9.19045 12.4375 9.28246V22.72C12.4375 23.1294 12.9 23.3606 13.2281 23.1231L22.4813 16.4044C22.5451 16.3583 22.5972 16.2978 22.6331 16.2277C22.6689 16.1576 22.6877 16.08 22.6877 16.0012C22.6877 15.9225 22.6689 15.8449 22.6331 15.7748C22.5972 15.7047 22.5451 15.6441 22.4813 15.5981V15.5981ZM14.4313 19.7856V12.2168L19.6406 16.0012L14.4313 19.7856V19.7856Z" fill="black"/>
</svg>
