<svg width="36" height="36" viewBox="0 0 36 36" fill="none" xmlns="http://www.w3.org/2000/svg">
<path d="M20.1794 23.3927C20.1265 23.3403 20.0552 23.311 19.9808 23.311C19.9064 23.311 19.835 23.3403 19.7821 23.3927L15.697 27.4778C13.8056 29.3692 10.6134 29.5696 8.5251 27.4778C6.43331 25.386 6.6337 22.1974 8.5251 20.306L12.6103 16.2208C12.7192 16.1118 12.7192 15.9325 12.6103 15.8235L11.211 14.4243C11.1582 14.372 11.0868 14.3426 11.0124 14.3426C10.938 14.3426 10.8666 14.372 10.8138 14.4243L6.72862 18.5095C3.7544 21.4837 3.7544 26.2966 6.72862 29.2673C9.70284 32.238 14.5157 32.2415 17.4864 29.2673L21.5716 25.1821C21.6806 25.0732 21.6806 24.8939 21.5716 24.7849L20.1794 23.3927ZM29.2708 6.72862C26.2966 3.7544 21.4837 3.7544 18.513 6.72862L14.4243 10.8138C14.372 10.8666 14.3426 10.938 14.3426 11.0124C14.3426 11.0868 14.372 11.1582 14.4243 11.211L15.82 12.6067C15.929 12.7157 16.1083 12.7157 16.2173 12.6067L20.3024 8.52159C22.1939 6.63018 25.386 6.42979 27.4743 8.52159C29.5661 10.6134 29.3657 13.8021 27.4743 15.6935L23.3892 19.7786C23.3368 19.8315 23.3075 19.9029 23.3075 19.9773C23.3075 20.0516 23.3368 20.123 23.3892 20.1759L24.7884 21.5751C24.8974 21.6841 25.0767 21.6841 25.1857 21.5751L29.2708 17.4899C32.2415 14.5157 32.2415 9.70284 29.2708 6.72862V6.72862ZM21.4485 13.0884C21.3957 13.036 21.3243 13.0067 21.2499 13.0067C21.1755 13.0067 21.1041 13.036 21.0513 13.0884L13.0884 21.0478C13.036 21.1006 13.0067 21.172 13.0067 21.2464C13.0067 21.3208 13.036 21.3922 13.0884 21.445L14.4806 22.8372C14.5896 22.9462 14.7689 22.9462 14.8778 22.8372L22.8372 14.8778C22.9462 14.7689 22.9462 14.5896 22.8372 14.4806L21.4485 13.0884Z" fill="black"/>
</svg>
